<?xml version="1.0" encoding="UTF-8"?>
<svg version="1.1" xmlns="http://www.w3.org/2000/svg" width="704" height="704">
<path d="M0 0 C232.32 0 464.64 0 704 0 C704 232.32 704 464.64 704 704 C471.68 704 239.36 704 0 704 C0 471.68 0 239.36 0 0 Z " fill="#FCFCFC" transform="translate(0,0)"/>
<path d="M0 0 C20.13 0 40.26 0 61 0 C61 36.96 61 73.92 61 112 C82.45 112 103.9 112 126 112 C126 130.48 126 148.96 126 168 C104.22 168 82.44 168 60 168 C60 173.61 60 179.22 60 185 C72.54 185 85.08 185 98 185 C98.33 196.22 98.66 207.44 99 219 C101.64 217.02 104.28 215.04 107 213 C110.0188201 211.49058995 112.8309686 211.82906728 116.1875 211.8125 C117.48042969 211.79832031 118.77335937 211.78414062 120.10546875 211.76953125 C124.02994957 212.00177234 127.25735023 212.84702967 131 214 C134.76142831 214.18807142 137.42834405 214.19055198 141 213 C141.50234934 206.84422718 140.07376024 203.3871585 137.0625 198.25 C132.86638754 190.84339045 131.17843767 185.56772139 132 177 C134.14361502 169.4327807 139.51312326 165.32458449 145.8125 161.125 C152.79413137 158.66089481 159.60754806 159.99024682 166.66796875 161.546875 C169.90697643 162.17622993 172.71012155 162.27415654 176 162 C178.76666667 159.63333333 178.76666667 159.63333333 179 153 C170.42 153 161.84 153 153 153 C153 139.47 153 125.94 153 112 C167.0625 111.625 167.0625 111.625 171.45727539 111.52197266 C172.61735107 111.4863623 173.77742676 111.45075195 174.97265625 111.4140625 C176.15093994 111.3826416 177.32922363 111.3512207 178.54321289 111.31884766 C182.23176127 110.97862277 185.46011826 110.0641459 189 109 C192.640625 108.76953125 192.640625 108.76953125 196.25 108.8125 C198.05210937 108.82216797 198.05210937 108.82216797 199.890625 108.83203125 C203 109 203 109 206 110 C208.72331488 110.23188622 211.25039269 110.13093368 214 110 C216.30886319 108.1308634 216.30886319 108.1308634 216.1875 105.125 C216.08539077 101.82024057 216.08539077 101.82024057 215 98 C221.27 98 227.54 98 234 98 C236.11411867 102.22823735 235.49624008 107.40977922 235 112 C232.38077524 119.56414046 227.69145444 123.81526166 220.9375 127.8125 C213.34077502 130.79028084 204.53030419 129.45887484 197 127 C193.79019864 126.66486406 193.79019864 126.66486406 191 127 C190.34 127.66 189.68 128.32 189 129 C189 135.14671928 191.72115988 139.72308335 194.625 145.03515625 C197.55666145 151.35655125 198.51027206 159.78071976 196.12890625 166.43359375 C193.01464707 172.48853045 188.82840206 177.08905996 182.70703125 180.14453125 C174.75041197 182.65896072 165.8518798 181.28418321 158 179 C155.24741188 178.66290938 155.24741188 178.66290938 153 179 C150.80150739 180.80186784 150.80150739 180.80186784 150.6640625 183.25 C151.09907036 186.8109946 152.47903633 188.96645813 154.375 192 C159.57168332 200.383127 161.45894104 207.03056958 160 217 C158.18935797 220.61111192 155.91952147 223.23349328 153 226 C152.175 226.78375 151.35 227.5675 150.5 228.375 C142.86930856 233.33494944 135.66229865 234.3013171 126.66015625 232.54296875 C124.77068092 232.03886689 122.88515053 231.52004153 121 231 C117.70714899 230.74730583 117.70714899 230.74730583 115 231 C113.72030701 232.07387701 113.72030701 232.07387701 113.6875 234.59375 C114.08115645 238.88460535 115.89081583 241.85191075 118 245.5 C122.01952761 253.00561282 123.61491692 259.42275915 122 268 C119.64060504 274.81164234 115.55326338 279.57093725 109.19140625 282.96484375 C104.68393538 284.93289441 100.60447394 285.36609116 95.71484375 285.125 C92.94192253 284.94879438 92.94192253 284.94879438 89.94140625 285.1875 C86.58712616 285.25450185 84.16350705 285.14471924 81 284 C77.25611372 279.74472285 74 274.78990379 74 269 C76.79131378 266.34918859 78.56569316 265.11347729 82.43164062 264.80761719 C85.22019532 264.90219618 87.97260604 265.10903888 90.75 265.375 C92.63985984 265.53778739 94.53049501 265.69188317 96.421875 265.8359375 C97.66855957 265.95267822 97.66855957 265.95267822 98.94042969 266.07177734 C101.22824846 266.22645126 101.22824846 266.22645126 103 264 C103.82218844 258.31319664 101.54292912 254.38826577 99 249.5 C98.23891296 248.03696443 97.48858141 246.56827503 96.75 245.09375 C96.41484375 244.45115234 96.0796875 243.80855469 95.734375 243.14648438 C95 241 95 241 95 235 C83.45 235 71.9 235 60 235 C60 252.49 60 269.98 60 288 C40.2 288 20.4 288 0 288 C0 192.96 0 97.92 0 0 Z " fill="#030303" transform="translate(213,141)"/>
<path d="M0 0 C1.11620728 0.02791626 2.23241455 0.05583252 3.38244629 0.08459473 C6.12558554 0.15722666 8.86444698 0.25873585 11.60546875 0.38671875 C11.91277014 7.10751396 12.1210884 13.82646802 12.26464844 20.55273438 C12.32455527 22.83434713 12.40611882 25.11550791 12.51074219 27.39550781 C13.44858194 48.37737376 13.44858194 48.37737376 7.51239014 55.84860229 C5.49146482 58.04191824 3.39073293 60.07181115 1.13690186 62.02416992 C-1.30652778 64.19814159 -3.41069385 66.63042276 -5.58203125 69.07421875 C-6.79246094 70.39292969 -6.79246094 70.39292969 -8.02734375 71.73828125 C-11.20186333 75.28997148 -14.17932822 78.98634834 -17.171875 82.69140625 C-20.1059331 86.2494029 -23.1871498 89.65874242 -26.2890625 93.0703125 C-29.37523029 96.46566964 -32.39091983 99.91833187 -35.39453125 103.38671875 C-35.8529541 103.91346191 -36.31137695 104.44020508 -36.78369141 104.98291016 C-38.36565113 106.80213871 -39.94294175 108.6253352 -41.51953125 110.44921875 C-42.02266846 111.02704102 -42.52580566 111.60486328 -43.04418945 112.20019531 C-43.53363037 112.76834961 -44.02307129 113.33650391 -44.52734375 113.921875 C-44.95934082 114.42082275 -45.39133789 114.91977051 -45.83642578 115.43383789 C-48.1435615 118.32552994 -50.2443617 121.37648138 -52.39453125 124.38671875 C-31.27453125 124.38671875 -10.15453125 124.38671875 11.60546875 124.38671875 C11.60546875 141.87671875 11.60546875 159.36671875 11.60546875 177.38671875 C-31.62453125 177.38671875 -74.85453125 177.38671875 -119.39453125 177.38671875 C-119.39453125 126.00379192 -119.39453125 126.00379192 -102.29296875 106.56640625 C-99.68022247 103.56658644 -97.10252008 100.53716214 -94.51953125 97.51171875 C-90.97008018 93.35501617 -87.38780639 89.24098059 -83.70703125 85.19921875 C-79.92918039 81.0354584 -76.37048345 76.72715193 -72.83203125 72.359375 C-68.62330642 67.22661924 -64.27546598 62.21325981 -59.94287109 57.18505859 C-57.42160199 54.25669716 -54.90837476 51.3214543 -52.39453125 48.38671875 C-49.38426082 44.87375476 -46.37324104 41.3614425 -43.359375 37.8515625 C-40.85389738 34.9332803 -38.35155646 32.01233653 -35.8515625 29.08935547 C-34.89407431 27.97046762 -33.93576524 26.85228162 -32.9765625 25.73486328 C-32.05049499 24.65542394 -31.12648436 23.5742164 -30.20458984 22.49121094 C-29.29127468 21.42356468 -28.36970036 20.36292752 -27.43994141 19.30957031 C-24.52757265 15.95555921 -22.22744503 12.59419534 -20.15771484 8.65893555 C-14.39080535 0.37155081 -10.05940903 -0.47767625 0 0 Z " fill="#020202" transform="translate(481.39453125,251.61328125)"/>
<path d="M0 0 C1.09054687 0.49113281 2.18109375 0.98226562 3.3046875 1.48828125 C24.49043713 11.92575937 39.68505481 31.2074546 47.375 53.3125 C47.94179288 55.20097363 48.48556661 57.09659645 49 59 C49.33644531 60.18916016 49.33644531 60.18916016 49.6796875 61.40234375 C51.64230947 69.48135609 51 76.25862508 51 85 C35.49 85 19.98 85 4 85 C3.34 80.05 2.68 75.1 2 70 C-0.73841895 58.75806958 -8.15234555 49.93054653 -17.93359375 43.78515625 C-19.92244031 42.72470487 -21.90695171 41.83567178 -24 41 C-24.74894531 40.7009375 -25.49789062 40.401875 -26.26953125 40.09375 C-37.35407279 36.22580012 -48.40468686 37.07194738 -59 42 C-70.7657122 48.72326411 -77.77806355 57.78253032 -81.38671875 70.765625 C-82.27630473 75.45719947 -82.56767656 80.24444213 -83 85 C-98.51 85 -114.02 85 -130 85 C-130 57.3356746 -123.16061322 36.82518101 -103.75 16.3125 C-75.51079957 -10.70528172 -35.06456169 -15.94187956 0 0 Z " fill="#030303" transform="translate(408,150)"/>
<path d="M0 0 C5.61 0 11.22 0 17 0 C17 1.98 17 3.96 17 6 C17.47050781 5.65066406 17.94101562 5.30132812 18.42578125 4.94140625 C19.04839844 4.48636719 19.67101562 4.03132813 20.3125 3.5625 C20.92738281 3.11003906 21.54226563 2.65757812 22.17578125 2.19140625 C28.05715422 -1.6497474 37.20868729 -0.73375132 44 0 C51.79818146 2.26740602 57.46966531 8.42593345 61.3203125 15.38671875 C65.13158588 23.87546401 64.99337336 31.796056 62.03515625 40.546875 C58.28711878 49.42901664 53.21693303 54.10555905 44.6171875 58.109375 C37.03988544 60.68791958 29.04831552 59.39829498 22 56 C20.68 55.01 19.36 54.02 18 53 C18 61.91 18 70.82 18 80 C12.06 80 6.12 80 0 80 C0 53.6 0 27.2 0 0 Z " fill="#080808" transform="translate(536,498)"/>
<path d="M0 0 C1.29550781 -0.02578125 2.59101563 -0.0515625 3.92578125 -0.078125 C9.98319239 0.45024731 14.24772197 3.20196709 18.6875 7.25 C18.6875 7.91 18.6875 8.57 18.6875 9.25 C19.3475 9.25 20.0075 9.25 20.6875 9.25 C20.89375 8.6725 21.1 8.095 21.3125 7.5 C23.70714374 3.58149206 27.41501322 1.67416226 31.6875 0.25 C40.85104586 -0.52259351 49.03719003 -1.08530536 56.80078125 4.54296875 C61.85406526 9.11498761 64.30741757 14.57316154 64.8604126 21.37765503 C64.9173924 23.74270225 64.91270225 26.09931058 64.8828125 28.46484375 C64.8799826 29.32058487 64.87715271 30.17632599 64.87423706 31.05799866 C64.86311935 33.76797991 64.83803082 36.47762009 64.8125 39.1875 C64.80245931 41.03450041 64.79333537 42.88150604 64.78515625 44.72851562 C64.76491648 49.23591145 64.72575252 53.74257783 64.6875 58.25 C58.7475 58.25 52.8075 58.25 46.6875 58.25 C46.65011719 55.70925781 46.61273438 53.16851563 46.57421875 50.55078125 C46.52796646 48.08170108 46.47674639 45.61277028 46.42504883 43.14379883 C46.39185831 41.43197762 46.36380811 39.72004852 46.34106445 38.00805664 C46.30740968 35.54266521 46.25509026 33.07825719 46.19921875 30.61328125 C46.19282883 29.85163162 46.1864389 29.08998199 46.17985535 28.30525208 C46.0562551 23.80706444 45.48029553 20.82606233 42.6875 17.25 C40.1587083 15.98560415 38.19891971 15.93860196 35.375 15.8125 C33.95767578 15.72162109 33.95767578 15.72162109 32.51171875 15.62890625 C29.15297798 16.36755048 27.85122318 17.75348581 25.74803162 20.4127655 C23.84571101 23.70829106 23.96109381 26.98395393 23.98046875 30.7109375 C23.96534744 31.50150543 23.95022614 32.29207336 23.93464661 33.1065979 C23.89191654 35.61302539 23.88294648 38.11824524 23.875 40.625 C23.85184405 42.33206303 23.82647642 44.03909757 23.79882812 45.74609375 C23.73198438 49.91471257 23.71087916 54.08000888 23.6875 58.25 C17.7475 58.25 11.8075 58.25 5.6875 58.25 C5.67332031 55.56488281 5.65914063 52.87976563 5.64453125 50.11328125 C5.6138941 47.50516285 5.57480987 44.89729788 5.53491211 42.28930664 C5.51175315 40.48047892 5.49734131 38.67151675 5.49194336 36.86254883 C5.48263804 34.25777617 5.44161645 31.65511176 5.39453125 29.05078125 C5.3984639 28.24538406 5.40239655 27.43998688 5.40644836 26.61018372 C5.29556707 22.31781828 5.05493149 20.70835156 2.2722168 17.23706055 C-0.98609643 14.73215724 -2.44944262 14.62345271 -6.3828125 14.890625 C-9.90751682 15.54704767 -12.36492021 16.88652171 -14.41943359 19.84277344 C-15.71977518 23.34779478 -15.67092792 26.82240083 -15.7265625 30.515625 C-15.74592865 31.30902283 -15.7652948 32.10242065 -15.7852478 32.91986084 C-15.84488361 35.44646557 -15.89136443 37.97311625 -15.9375 40.5 C-15.97569455 42.21616537 -16.01474715 43.93231187 -16.0546875 45.6484375 C-16.15218276 49.84885848 -16.23187639 54.04908582 -16.3125 58.25 C-21.9225 58.25 -27.5325 58.25 -33.3125 58.25 C-33.3125 39.44 -33.3125 20.63 -33.3125 1.25 C-28.0325 1.25 -22.7525 1.25 -17.3125 1.25 C-17.3125 2.9 -17.3125 4.55 -17.3125 6.25 C-16.84199219 5.90066406 -16.37148438 5.55132812 -15.88671875 5.19140625 C-15.26410156 4.73636719 -14.64148438 4.28132813 -14 3.8125 C-13.38511719 3.36003906 -12.77023437 2.90757812 -12.13671875 2.44140625 C-8.23476077 -0.10698172 -4.54000626 0.05388731 0 0 Z " fill="#060606" transform="translate(298.3125,497.75)"/>
<path d="M0 0 C1.9609375 1.11328125 1.9609375 1.11328125 3.8125 2.4375 C4.88371094 3.20126953 4.88371094 3.20126953 5.9765625 3.98046875 C12.05892348 8.81318102 14.94685878 13.97493512 16.8125 21.4375 C16.8125 25.3975 16.8125 29.3575 16.8125 33.4375 C2.6225 33.4375 -11.5675 33.4375 -26.1875 33.4375 C-23.00804771 40.02146962 -23.00804771 40.02146962 -17.1875 43.4375 C-10.99561707 44.45392299 -6.30445396 43.57725051 -0.9765625 40.3125 C0.8125 39.4375 0.8125 39.4375 4.8125 39.4375 C6.76953125 40.828125 6.76953125 40.828125 8.625 42.6875 C9.25019531 43.29078125 9.87539063 43.8940625 10.51953125 44.515625 C11.8125 46.4375 11.8125 46.4375 11.7734375 48.5078125 C10.49558355 51.07390945 9.1541444 51.74920894 6.625 53.0625 C5.86832031 53.46726562 5.11164063 53.87203125 4.33203125 54.2890625 C-5.04039961 58.56114726 -16.99409525 59.43775714 -26.8125 55.8125 C-34.30249542 52.14367173 -39.26492962 47.23155449 -43.0859375 39.7734375 C-45.6158631 32.11188976 -45.53290316 22.493208 -43.0625 14.8125 C-34.61863693 -0.38645352 -16.48842393 -6.80474638 0 0 Z " fill="#070708" transform="translate(418.1875,499.5625)"/>
<path d="M0 0 C0.96035156 -0.03738281 1.92070312 -0.07476562 2.91015625 -0.11328125 C10.76873537 -0.20924762 16.42378687 1.75160336 22.25830078 7.10205078 C27.72284761 12.67647226 28.60309134 19.53512958 28.60159302 27.07507324 C28.59127045 27.86498657 28.58094788 28.6548999 28.5703125 29.46875 C28.5674826 30.30088013 28.56465271 31.13301025 28.56173706 31.99035645 C28.55064286 34.61872431 28.52555925 37.2467371 28.5 39.875 C28.48995626 41.66926587 28.48083286 43.46353715 28.47265625 45.2578125 C28.45073893 49.63034279 28.4162849 54.00261143 28.375 58.375 C23.095 58.375 17.815 58.375 12.375 58.375 C12.375 56.395 12.375 54.415 12.375 52.375 C11.715 52.375 11.055 52.375 10.375 52.375 C10.045 53.365 9.715 54.355 9.375 55.375 C2.72903182 60.30587962 -5.72824477 60.45394418 -13.625 59.375 C-18.87207732 57.40229296 -22.54684801 54.05379102 -25.625 49.375 C-27.46596186 43.85211441 -27.53511456 38.38483631 -25.125 33.0625 C-21.19587109 28.83868643 -17.50239994 25.76142186 -11.63085938 24.97290039 C-8.28231893 24.88426551 -4.97225263 24.93788865 -1.625 25.0625 C-0.46871094 25.08505859 0.68757813 25.10761719 1.87890625 25.13085938 C4.71230434 25.18940066 7.54295364 25.27134965 10.375 25.375 C9.32796491 20.52960479 9.32796491 20.52960479 6.66796875 16.4609375 C0.31281914 13.45117329 -8.50788109 14.70751992 -15 16.875 C-16.19625 17.37 -17.3925 17.865 -18.625 18.375 C-19.46884675 16.96457044 -20.29969496 15.54635868 -21.125 14.125 C-21.5890625 13.33609375 -22.053125 12.5471875 -22.53125 11.734375 C-23.625 9.375 -23.625 9.375 -23.625 5.375 C-22.0212669 4.72809078 -20.41699694 4.08251236 -18.8125 3.4375 C-17.47251953 2.89802734 -17.47251953 2.89802734 -16.10546875 2.34765625 C-10.59692501 0.18761311 -5.86329379 0.08452979 0 0 Z " fill="#070708" transform="translate(221.625,497.625)"/>
<path d="M0 0 C16.83 0 33.66 0 51 0 C51 12 51 12 48.69140625 15.62890625 C47.67651256 16.63587882 46.63196326 17.61368426 45.5625 18.5625 C44.45437239 19.64702951 43.3489331 20.73431214 42.24609375 21.82421875 C41.42020752 22.61771729 41.42020752 22.61771729 40.57763672 23.42724609 C37.48799939 26.50732094 34.8527863 29.96455361 32.1328125 33.3671875 C29.48761976 36.63249868 26.73481877 39.80937811 24 43 C37.86 43.495 37.86 43.495 52 44 C52 48.62 52 53.24 52 58 C34.51 58 17.02 58 -1 58 C-1 47 -1 47 1.9375 42.9375 C3.27910222 41.61215963 4.63432616 40.30052243 6 39 C7.51214646 37.34434579 9.01174301 35.67716097 10.5 34 C11.63695312 32.73929688 11.63695312 32.73929688 12.796875 31.453125 C17.64437375 26.05555547 22.35479392 20.57424729 27 15 C18.09 14.67 9.18 14.34 0 14 C0 9.38 0 4.76 0 0 Z " fill="#080909" transform="translate(441,498)"/>
<path d="M0 0 C-0.656379 4.48525648 -1.70074209 8.66914029 -3 13 C-3.75925781 12.89300781 -4.51851562 12.78601563 -5.30078125 12.67578125 C-6.79158203 12.49595703 -6.79158203 12.49595703 -8.3125 12.3125 C-9.79169922 12.12107422 -9.79169922 12.12107422 -11.30078125 11.92578125 C-13.96784974 11.7734587 -13.96784974 11.7734587 -15.79296875 13.10546875 C-17.4831871 15.4857075 -17.4831871 15.4857075 -18 21 C-13.05 21 -8.1 21 -3 21 C-3 25.62 -3 30.24 -3 35 C-7.95 35 -12.9 35 -18 35 C-18 49.19 -18 63.38 -18 78 C-23.61 78 -29.22 78 -35 78 C-35 63.81 -35 49.62 -35 35 C-37.97 35 -40.94 35 -44 35 C-44 30.38 -44 25.76 -44 21 C-41.03 21 -38.06 21 -35 21 C-35.08701172 20.05640625 -35.08701172 20.05640625 -35.17578125 19.09375 C-35.52986063 12.37635833 -34.5209004 8.07332962 -30 3 C-21.10362941 -4.82569141 -10.44634908 -4.82139188 0 0 Z " fill="#070707" transform="translate(150,478)"/>
<path d="M0 0 C0 4.95 0 9.9 0 15 C-2.041875 15.12375 -2.041875 15.12375 -4.125 15.25 C-8.67620475 15.76523073 -11.46279412 16.96810925 -15 20 C-18.09742284 24.09730893 -18.4659553 27.72220517 -18.51171875 32.70703125 C-18.52966995 33.43242599 -18.54762115 34.15782074 -18.56611633 34.90519714 C-18.62002217 37.20757342 -18.65405001 39.50974479 -18.6875 41.8125 C-18.72069068 43.37958568 -18.75518196 44.9466444 -18.79101562 46.51367188 C-18.87817206 50.34247413 -18.93840292 54.17036106 -19 58 C-24.61 58 -30.22 58 -36 58 C-36 39.19 -36 20.38 -36 1 C-30.72 1 -25.44 1 -20 1 C-20 2.98 -20 4.96 -20 7 C-19.37351563 6.57847656 -18.74703125 6.15695312 -18.1015625 5.72265625 C-17.28429687 5.17480469 -16.46703125 4.62695312 -15.625 4.0625 C-14.81289062 3.51722656 -14.00078125 2.97195313 -13.1640625 2.41015625 C-8.62502583 -0.54759147 -5.37669862 -0.07680998 0 0 Z " fill="#020202" transform="translate(190,498)"/>
<path d="M0 0 C5.61 0 11.22 0 17 0 C17 18.81 17 37.62 17 57 C11.39 57 5.78 57 0 57 C0 38.19 0 19.38 0 0 Z " fill="#030303" transform="translate(503,499)"/>
<path d="M0 0 C3.4711912 2.50248668 5.40981542 4.89859709 6.6875 8.9375 C7.46663681 13.8877054 7.90439395 18.6685816 5.4765625 23.1953125 C2.44322101 26.87535624 -0.64930087 29.42553566 -5.42578125 30.34375 C-10.97573423 30.58033769 -13.81066039 29.48173624 -17.90234375 25.73828125 C-21.51625251 21.12328973 -21.79867674 16.3370743 -21.69921875 10.66796875 C-21.11523764 6.54470816 -19.38787185 3.71342775 -16.3125 0.9375 C-11.14708787 -2.22976917 -5.61517324 -1.8010933 0 0 Z " fill="#F6F6F6" transform="translate(575.3125,513.0625)"/>
<path d="M0 0 C2.65683189 1.49748707 4.84652751 2.84652751 7 5 C7.44169067 8.05397552 7.47716383 10.95030077 7 14 C4.81840855 16.75569447 3.12822506 18.43588747 0 20 C-4.4188083 20.5098625 -6.50771901 20.29172207 -10.375 18 C-13.21412052 14.75529083 -13.94661953 13.11781552 -14.17578125 8.9296875 C-13.90838929 5.99431804 -12.85267389 4.24967544 -11 2 C-7.30205437 -0.46529709 -4.29189737 -0.68832316 0 0 Z " fill="#090808" transform="translate(515,471)"/>
<path d="M0 0 C4.41116385 2.20558192 6.96872431 4.48605402 9 9 C9 10.32 9 11.64 9 13 C0.09 13 -8.82 13 -18 13 C-16.95763751 6.74582506 -16.51143164 5.86694141 -12 2 C-7.95308865 -0.6979409 -4.75253951 -0.65804393 0 0 Z " fill="#E6E6E7" transform="translate(409,510)"/>
<path d="M0 0 C0.69287109 0.01804687 1.38574219 0.03609375 2.09960938 0.0546875 C3.79617664 0.10148936 5.49202476 0.17322376 7.1875 0.25 C7.4140625 6.8984375 7.4140625 6.8984375 5.375 10.0625 C2.27122935 13.16627065 0.75026963 14.19553842 -3.6875 14.625 C-6.80418206 14.53299463 -7.95247029 14.17418276 -10.8125 12.625 C-12.8125 10.25 -12.8125 10.25 -13.4375 7.25 C-12.8125 4.25 -12.8125 4.25 -10.76171875 2.078125 C-7.09392185 -0.19542328 -4.16717507 -0.20736182 0 0 Z " fill="#EEEEEE" transform="translate(224.8125,531.75)"/>
<path d="M0 0 C1.8871875 0.061875 1.8871875 0.061875 3.8125 0.125 C3.8125 0.455 3.8125 0.785 3.8125 1.125 C2.265625 1.2178125 2.265625 1.2178125 0.6875 1.3125 C-4.07212827 2.31048657 -5.72342963 3.82990867 -9.1875 7.125 C-7.4328046 1.99589037 -5.59164481 -0.18333262 0 0 Z " fill="#313131" transform="translate(511.1875,470.875)"/>
</svg>
